<svg width="50" height="50" viewBox="0 0 50 50" fill="none" xmlns="http://www.w3.org/2000/svg">
<path d="M27.4717 2.07196L23.4372 12.415L30.8601 22.5393L40.3459 21.8038L40.0432 14.0612L32.4065 12.8436L32.2492 16.8998L35.092 17.6389L35.0172 16.2619L36.8397 16.1631L37.0496 20.0337L30.369 18.2966L30.6623 10.7175L37.3664 11.7864L37.1266 3.38368L27.472 2.07216L27.4717 2.07196ZM23.792 6.48339L16.5946 10.3815L19.1294 23.7988L32.9288 31.6801L48.0115 23.864L46.9127 9.97675L39.1376 9.88026L39.2003 12.0787L41.8082 12.4944L42.2382 23.4876L29.9886 24.4375L21.3727 12.6857L23.792 6.48358V6.48339ZM14.6995 15.1461C14.4073 15.1445 14.1126 15.1464 13.8154 15.1519C12.8919 15.1689 11.9184 15.2352 10.9404 15.3076C11.861 16.6084 12.7659 17.8628 13.8854 18.8172C14.6563 19.4744 15.5294 20.0191 16.6271 20.3851L15.6407 15.1651C15.3299 15.1543 15.0161 15.148 14.6993 15.1462L14.6995 15.1461ZM17.1966 23.399C15.8023 23.9137 14.5443 24.693 13.3453 25.6988C11.5997 27.1632 9.99836 29.1383 8.40149 31.4088C13.9581 31.6627 18.1827 30.7828 22.7878 27.9898L17.4926 24.9658L17.1967 23.3989L17.1966 23.399ZM43.6472 28.181L38.7019 30.7439C41.424 32.7781 44.0598 33.4008 47.5068 33.5327C46.6513 31.4611 45.2981 29.6768 43.6471 28.1811L43.6472 28.181ZM25.1069 28.6591C23.6844 29.6112 22.2905 30.3974 20.8924 31.0362C20.9285 32.0951 21.1671 32.9603 21.5729 33.6212C18.693 37.3018 15.5461 40.6541 12.1217 43.6644C10.4045 43.5458 9.72161 41.7956 10.379 40.0176C8.15657 41.7826 7.40764 44.1353 8.4259 46.6949C7.75854 47.2066 7.08199 47.7061 6.39661 48.1933H10.8247C13.3296 46.2295 15.6992 44.1094 17.9384 41.8365C20.8178 42.7342 23.2167 41.6891 24.7377 39.1051C23.2753 39.8914 21.6892 39.6546 21.0817 38.4521C22.0286 37.3668 22.9455 36.2555 23.8313 35.1196C24.5393 35.2378 25.3533 35.1753 26.2453 34.9214C25.3798 33.1661 24.944 31.0942 25.1071 28.6591H25.1069ZM26.8777 30.3256C26.9953 32.7878 27.8994 34.6234 29.2847 36.1967C31.0341 38.1836 33.6529 39.7066 36.4746 41.159C37.2354 37.8802 37.4077 35.0394 36.2744 32.0017L32.8865 33.7574L26.8777 30.3256Z" fill="white"/>
</svg>
